<svg baseProfile="tiny" height="232" version="1.2" viewBox="0 0 137 232" width="137" xmlns="http://www.w3.org/2000/svg" xmlns:ev="http://www.w3.org/2001/xml-events" xmlns:xlink="http://www.w3.org/1999/xlink"><defs /><path d="M 81 0 80 1 81 1 83 3 81 5 81 6 80 7 80 8 80 7 81 6 82 7 82 8 83 9 83 10 82 11 82 12 81 13 81 17 80 18 79 17 80 18 78 20 79 19 81 21 80 22 79 22 79 23 78 24 78 25 77 26 77 27 76 28 76 30 75 31 76 32 75 33 74 33 73 34 74 35 74 36 73 37 72 36 73 37 73 38 72 39 70 37 72 39 72 40 71 41 70 41 69 42 68 42 69 42 70 43 68 45 67 45 68 46 67 47 66 47 65 48 65 49 64 50 65 51 63 53 62 53 60 55 60 56 59 57 58 57 57 58 57 59 56 60 54 60 54 61 52 63 53 64 52 65 50 65 49 66 48 65 49 66 46 69 47 70 46 71 45 71 44 70 45 71 44 72 43 72 42 73 40 73 39 74 39 76 38 77 37 76 36 76 36 77 35 78 35 79 32 82 31 82 31 83 30 84 29 83 30 84 29 85 28 85 27 86 27 87 21 93 22 94 17 99 18 100 17 101 16 101 15 100 17 102 18 102 19 103 18 104 16 104 14 102 15 103 14 104 14 105 15 106 13 108 12 108 12 110 10 112 11 113 12 112 13 112 14 113 14 115 15 116 14 117 13 117 12 116 12 115 11 116 9 114 10 115 9 116 9 118 8 119 7 119 7 120 6 121 6 122 7 123 7 124 6 125 6 126 5 127 5 129 3 131 3 132 4 133 2 135 3 136 3 137 2 138 2 139 3 140 2 141 1 141 1 145 2 146 1 147 1 150 2 151 2 152 1 153 1 154 2 155 1 156 1 158 0 159 1 158 2 159 2 160 3 161 2 162 1 162 1 163 2 163 3 164 3 170 4 171 4 174 5 175 5 177 6 178 6 179 7 180 6 181 7 181 8 182 8 184 9 185 8 186 9 185 10 186 10 187 11 187 12 188 11 189 11 190 13 192 12 193 12 194 13 194 15 196 14 197 15 198 15 199 18 202 19 202 21 204 22 204 23 203 25 203 26 204 25 205 26 204 27 204 28 205 29 205 30 206 30 207 31 208 32 208 33 209 32 210 33 211 33 212 34 212 35 213 36 213 37 214 37 215 36 216 35 215 35 216 36 216 37 217 37 219 38 219 39 220 38 221 39 222 39 224 41 226 41 227 43 229 43 230 44 231 45 231 44 231 43 230 44 229 47 229 47 228 48 227 47 226 48 225 48 222 49 221 49 218 50 217 50 214 51 213 51 210 52 209 52 206 53 205 53 204 52 203 54 201 53 200 55 198 54 198 53 197 53 195 54 194 55 195 56 195 56 194 57 193 57 191 58 190 58 189 59 188 60 188 60 187 61 186 60 185 61 184 60 183 60 182 61 181 62 182 63 182 64 183 63 184 64 183 63 182 70 175 70 174 71 173 72 173 74 171 75 171 76 170 78 170 79 169 80 170 81 169 81 167 80 166 81 165 82 165 82 164 83 163 84 164 84 166 83 167 83 168 85 168 85 167 86 166 88 168 89 168 88 168 87 167 87 166 88 165 89 166 90 166 91 165 92 166 92 167 93 167 93 166 94 165 95 166 96 166 97 165 100 165 101 166 100 165 101 164 102 164 104 166 105 166 106 167 107 167 108 168 111 168 112 169 114 167 115 168 115 169 114 170 115 170 115 168 117 166 118 167 118 168 120 170 120 171 121 170 122 170 123 171 125 169 126 170 127 170 128 171 129 170 129 169 130 168 131 169 130 168 130 167 131 166 131 165 132 164 132 161 133 160 133 159 132 158 133 157 134 157 134 153 135 152 136 153 135 152 135 149 134 148 135 147 135 145 136 144 134 142 134 141 136 139 136 134 135 133 135 132 136 131 136 128 135 128 133 126 134 125 135 125 135 123 136 122 135 123 134 122 134 121 133 120 133 119 134 118 135 118 133 118 132 117 133 116 133 115 134 114 133 113 133 112 132 112 131 111 131 109 130 108 129 109 128 108 128 107 129 106 130 106 129 105 128 105 127 106 126 105 126 103 127 102 128 103 127 102 128 101 125 104 124 104 125 104 126 105 125 106 124 106 123 107 122 107 121 108 122 109 121 110 120 110 117 113 117 114 118 115 117 116 116 116 116 117 114 119 114 120 113 121 111 121 111 122 110 123 108 123 108 124 107 125 106 124 108 126 107 127 106 127 105 128 104 127 102 127 101 128 100 127 99 127 98 126 99 125 97 125 96 126 95 126 94 125 92 125 91 124 92 123 90 125 89 124 89 123 90 122 90 121 89 121 88 122 87 122 86 121 86 120 87 119 88 119 88 118 89 117 90 118 90 119 91 119 91 115 90 115 89 116 88 115 87 115 86 114 87 113 88 113 88 111 89 110 88 109 90 107 92 109 91 110 93 108 94 109 91 106 92 105 93 105 94 106 93 105 93 104 94 103 95 103 95 102 96 101 95 100 95 99 97 97 96 96 96 95 97 94 99 96 99 93 100 92 100 89 101 88 101 87 102 86 101 85 103 83 103 82 102 81 103 80 104 80 105 81 103 79 103 78 104 77 105 77 106 78 105 77 105 76 106 75 107 75 107 73 108 72 108 71 107 70 109 68 108 68 107 67 107 65 108 64 109 65 108 64 108 61 109 60 109 58 108 57 108 56 109 55 109 53 108 52 109 51 109 50 108 49 108 47 109 46 109 43 108 42 108 41 107 40 108 39 107 38 107 36 108 35 106 35 105 34 106 33 106 32 105 31 105 30 106 29 105 30 104 29 104 27 103 26 104 25 103 25 102 24 103 23 102 24 101 23 101 22 102 21 101 21 100 20 100 18 99 18 98 17 97 17 96 16 97 15 96 14 97 13 96 14 94 12 94 11 95 10 94 11 92 9 92 8 90 6 90 5 89 5 86 2 85 2 84 3 83 2 83 1 82 1 Z" fill="#4b97c4" stroke="black" stroke-width="2" /></svg>